<svg version="1.1" id="Layer_1" xmlns="http://www.w3.org/2000/svg" xmlns:xlink="http://www.w3.org/1999/xlink" x="0px" y="0px"
	 width="100%" viewBox="0 0 1216 241" enable-background="new 0 0 1216 241" xml:space="preserve">
<path fill="#FFFEFE" opacity="1.000000" stroke="none" 
	d="
M824.000000,242.000000 
	C549.333313,242.000000 275.166656,242.000000 1.000000,242.000000 
	C1.000000,161.666672 1.000000,81.333336 1.000000,1.000000 
	C406.333344,1.000000 811.666687,1.000000 1217.000000,1.000000 
	C1217.000000,81.333336 1217.000000,161.666672 1217.000000,242.000000 
	C1086.166626,242.000000 955.333313,242.000000 824.000000,242.000000 
M438.288055,84.157494 
	C438.350616,84.525536 438.413147,84.893570 438.475708,85.261612 
	C438.811584,84.995728 439.147491,84.729843 439.800293,84.039886 
	C439.753510,83.784409 439.706726,83.528938 439.659943,83.273460 
	C439.400940,83.474174 439.141937,83.674881 438.288055,84.157494 
M409.050293,204.653458 
	C409.277954,204.648529 409.505585,204.643585 409.733246,204.638657 
	C409.662384,204.269150 409.591553,203.899643 409.190308,202.941788 
	C380.153168,169.060516 377.898773,122.967438 403.370453,88.256912 
	C428.014099,54.674805 474.502533,39.107613 519.984802,60.084049 
	C519.061340,58.868416 517.946289,57.865810 516.704285,57.058651 
	C497.003784,44.255322 475.396210,39.800541 452.309296,43.223999 
	C399.723358,51.021744 364.426239,103.386490 377.181305,154.832993 
	C382.109619,174.710815 391.951752,191.790680 409.050293,204.653458 
M765.115845,96.276306 
	C763.076233,80.294411 761.036621,64.312508 758.954651,47.998951 
	C744.009216,47.998951 729.371582,48.093285 714.737061,47.922970 
	C711.641296,47.886940 710.106812,48.837116 708.716980,51.648338 
	C696.926392,75.496658 684.947754,99.252014 673.012329,123.028610 
	C672.245239,124.556747 671.368958,126.030060 670.543457,127.528870 
	C670.281494,127.435097 670.019531,127.341331 669.757629,127.247566 
	C668.995056,100.891258 668.232422,74.534958 667.471008,48.218765 
	C650.930847,48.218765 635.153931,48.218765 619.129333,48.218765 
	C619.129333,50.218719 619.025635,52.010021 619.144470,53.786449 
	C622.144897,98.655548 625.211060,143.520355 628.109375,188.396011 
	C628.344849,192.041611 629.818848,192.689713 633.036194,192.655731 
	C646.530762,192.513138 660.030212,192.448044 673.521912,192.689545 
	C677.354980,192.758148 679.349792,191.678772 681.130676,188.121979 
	C694.821289,160.779831 708.775513,133.569672 722.661743,106.325600 
	C723.184631,105.299667 723.849121,104.345932 724.882507,102.641052 
	C728.969604,133.219788 732.927368,162.830414 736.905273,192.592392 
	C753.082581,192.592392 768.569031,192.692657 784.049316,192.431534 
	C785.536499,192.406448 787.637695,190.430313 788.353394,188.858734 
	C796.753052,170.414520 805.004578,151.901947 813.171814,133.353073 
	C824.961365,106.576942 836.651611,79.757019 848.375366,52.951908 
	C849.019104,51.480000 849.581970,49.972736 850.313354,48.156956 
	C833.964050,48.156956 818.172302,48.156956 802.135132,48.156956 
	C791.456055,74.655884 780.768066,101.176926 770.080078,127.697968 
	C769.802246,127.580971 769.524353,127.463974 769.246521,127.346977 
	C767.904175,117.284851 766.561829,107.222733 765.115845,96.276306 
M1054.757324,58.174370 
	C1046.350220,102.756737 1037.943115,147.339096 1029.461304,192.317749 
	C1045.932617,192.317749 1061.679321,192.317749 1077.579468,192.317749 
	C1082.512085,166.352676 1087.399414,140.625977 1092.443237,114.075378 
	C1098.563965,123.887596 1104.373047,132.910339 1109.889648,142.108475 
	C1119.219238,157.664459 1128.322388,173.356201 1137.652100,188.912109 
	C1138.555908,190.419098 1140.363281,192.403397 1141.780029,192.426880 
	C1157.071289,192.680450 1172.368408,192.585083 1187.947388,192.585083 
	C1197.045776,144.264130 1206.072632,96.323128 1215.129883,48.220871 
	C1198.651489,48.220871 1182.876831,48.220871 1166.810791,48.220871 
	C1161.851074,74.708069 1156.921021,101.037567 1151.784668,128.467651 
	C1139.011353,106.753433 1126.880249,86.113693 1114.729126,65.485756 
	C1111.350708,59.750538 1109.185059,51.769974 1104.151978,48.962212 
	C1098.904785,46.035053 1090.866943,48.054527 1084.048584,48.012768 
	C1074.937256,47.956966 1065.825317,47.998970 1056.592407,47.998970 
	C1055.962036,51.474854 1055.431274,54.401527 1054.757324,58.174370 
M159.438583,64.075310 
	C147.323029,51.804325 131.764389,48.594894 115.516159,48.262211 
	C92.040260,47.781551 68.549026,48.048225 45.064331,47.999531 
	C40.759899,47.990604 36.455437,47.998257 31.919159,47.998257 
	C22.836720,96.252937 13.814336,144.188553 4.703187,192.595764 
	C21.002174,192.595764 36.478687,192.805084 51.946957,192.537476 
	C67.742676,192.264206 83.648872,192.559341 99.296669,190.769424 
	C131.433701,187.093353 154.565643,170.320847 165.519043,139.378494 
	C169.402191,128.408966 171.375946,116.511086 172.475693,104.872070 
	C173.875854,90.053589 170.334442,76.072777 159.438583,64.075310 
M841.956177,130.692642 
	C838.730591,163.079117 857.521606,186.862198 888.955322,192.518356 
	C904.678833,195.347610 920.427979,195.754257 936.206604,193.762512 
	C952.630981,191.689224 967.948914,186.333740 981.305420,176.313629 
	C1005.469421,158.185547 1016.111267,133.080582 1016.843201,103.689194 
	C1017.547668,75.402023 1001.531006,55.664547 973.960693,49.009956 
	C957.065674,44.932037 939.985901,44.869411 922.842285,46.941689 
	C877.790588,52.387440 846.439148,84.523170 841.956177,130.692642 
M350.752014,153.194962 
	C358.799164,139.850891 363.176666,125.304848 364.747772,109.883919 
	C367.782013,80.101631 353.231049,58.250397 324.467712,49.801838 
	C306.740082,44.594769 288.604309,44.766895 270.459595,46.993793 
	C223.481796,52.759354 191.092331,88.369606 189.674240,135.646759 
	C188.834442,163.644730 204.408401,184.221848 231.591293,191.191376 
	C248.458847,195.516098 265.566925,195.995499 282.697662,193.895279 
	C311.004425,190.424881 334.420837,178.347000 350.752014,153.194962 
M476.453400,85.888489 
	C455.465027,98.722824 449.485748,124.702927 463.037079,144.182465 
	C472.738953,158.128464 489.920197,165.373093 505.759247,161.620316 
	C523.149658,157.499985 534.822693,146.768387 538.371521,129.118500 
	C541.625244,112.936378 536.138245,98.889732 523.016052,88.920624 
	C508.764160,78.093269 493.101654,77.213257 476.453400,85.888489 
M404.204865,34.698517 
	C388.879089,48.719948 378.963348,70.362381 378.197937,81.742104 
	C400.104919,30.274565 449.873413,17.256134 484.828766,25.326658 
	C507.222137,30.496864 525.359985,42.520561 538.960388,61.230572 
	C552.501465,79.859001 557.680603,100.785034 556.250671,123.589775 
	C566.779907,86.437172 549.951782,44.333366 516.486267,23.563511 
	C480.630951,1.310451 436.334503,5.528653 404.204865,34.698517 
M526.456421,215.030197 
	C565.995300,212.829269 594.001282,193.602921 609.766968,157.394974 
	C618.896545,136.427643 618.269714,101.876350 609.175598,92.577827 
	C615.106689,122.877304 607.503601,149.300385 587.601440,171.566193 
	C567.384521,194.184052 541.297363,204.333130 511.030334,201.707397 
	C481.211975,199.120575 458.103333,184.214005 440.688904,160.019699 
	C457.961639,195.458954 485.880676,214.321945 526.456421,215.030197 
M426.271240,170.083603 
	C416.029175,140.080902 420.787292,112.070274 437.660858,85.608063 
	C415.465149,108.297462 406.054688,135.417175 412.540192,166.305069 
	C420.647278,204.915909 444.897003,229.599670 483.454132,238.387939 
	C512.449036,244.996719 538.816101,237.822678 561.561218,218.317413 
	C545.302856,226.950638 528.075134,231.646744 509.569794,230.982788 
	C490.934937,230.314194 473.924133,224.670715 458.895935,213.592407 
	C443.925568,202.556808 432.818848,188.491562 426.271240,170.083603 
M555.826843,30.660273 
	C578.415710,53.311485 588.439880,80.614822 582.701904,112.098083 
	C575.963684,149.069702 552.880615,172.676147 517.834229,185.117249 
	C549.884216,180.826172 574.046570,164.195694 588.309631,135.608704 
	C605.320740,101.513794 601.073364,68.083710 577.885071,38.057133 
	C556.728149,10.660944 527.466919,1.993303 493.843536,5.762928 
	C517.465637,6.049776 538.103088,13.810075 555.826843,30.660273 
z"/>
<path fill="#3C2E85" opacity="1.000000" stroke="none" 
	d="
M765.167664,96.718460 
	C766.561829,107.222733 767.904175,117.284851 769.246521,127.346977 
	C769.524353,127.463974 769.802246,127.580971 770.080078,127.697968 
	C780.768066,101.176926 791.456055,74.655884 802.135132,48.156956 
	C818.172302,48.156956 833.964050,48.156956 850.313354,48.156956 
	C849.581970,49.972736 849.019104,51.480000 848.375366,52.951908 
	C836.651611,79.757019 824.961365,106.576942 813.171814,133.353073 
	C805.004578,151.901947 796.753052,170.414520 788.353394,188.858734 
	C787.637695,190.430313 785.536499,192.406448 784.049316,192.431534 
	C768.569031,192.692657 753.082581,192.592392 736.905273,192.592392 
	C732.927368,162.830414 728.969604,133.219788 724.882507,102.641052 
	C723.849121,104.345932 723.184631,105.299667 722.661743,106.325600 
	C708.775513,133.569672 694.821289,160.779831 681.130676,188.121979 
	C679.349792,191.678772 677.354980,192.758148 673.521912,192.689545 
	C660.030212,192.448044 646.530762,192.513138 633.036194,192.655731 
	C629.818848,192.689713 628.344849,192.041611 628.109375,188.396011 
	C625.211060,143.520355 622.144897,98.655548 619.144470,53.786449 
	C619.025635,52.010021 619.129333,50.218719 619.129333,48.218765 
	C635.153931,48.218765 650.930847,48.218765 667.471008,48.218765 
	C668.232422,74.534958 668.995056,100.891258 669.757629,127.247566 
	C670.019531,127.341331 670.281494,127.435097 670.543457,127.528870 
	C671.368958,126.030060 672.245239,124.556747 673.012329,123.028610 
	C684.947754,99.252014 696.926392,75.496658 708.716980,51.648338 
	C710.106812,48.837116 711.641296,47.886940 714.737061,47.922970 
	C729.371582,48.093285 744.009216,47.998951 758.954651,47.998951 
	C761.036621,64.312508 763.076233,80.294411 765.167664,96.718460 
z"/>
<path fill="#3C2E85" opacity="1.000000" stroke="none" 
	d="
M1054.828857,57.751286 
	C1055.431274,54.401527 1055.962036,51.474854 1056.592407,47.998970 
	C1065.825317,47.998970 1074.937256,47.956966 1084.048584,48.012768 
	C1090.866943,48.054527 1098.904785,46.035053 1104.151978,48.962212 
	C1109.185059,51.769974 1111.350708,59.750538 1114.729126,65.485756 
	C1126.880249,86.113693 1139.011353,106.753433 1151.784668,128.467651 
	C1156.921021,101.037567 1161.851074,74.708069 1166.810791,48.220871 
	C1182.876831,48.220871 1198.651489,48.220871 1215.129883,48.220871 
	C1206.072632,96.323128 1197.045776,144.264130 1187.947388,192.585083 
	C1172.368408,192.585083 1157.071289,192.680450 1141.780029,192.426880 
	C1140.363281,192.403397 1138.555908,190.419098 1137.652100,188.912109 
	C1128.322388,173.356201 1119.219238,157.664459 1109.889648,142.108475 
	C1104.373047,132.910339 1098.563965,123.887596 1092.443237,114.075378 
	C1087.399414,140.625977 1082.512085,166.352676 1077.579468,192.317749 
	C1061.679321,192.317749 1045.932617,192.317749 1029.461304,192.317749 
	C1037.943115,147.339096 1046.350220,102.756737 1054.828857,57.751286 
z"/>
<path fill="#3C2E85" opacity="1.000000" stroke="none" 
	d="
M159.686600,64.328445 
	C170.334442,76.072777 173.875854,90.053589 172.475693,104.872070 
	C171.375946,116.511086 169.402191,128.408966 165.519043,139.378494 
	C154.565643,170.320847 131.433701,187.093353 99.296669,190.769424 
	C83.648872,192.559341 67.742676,192.264206 51.946957,192.537476 
	C36.478687,192.805084 21.002174,192.595764 4.703187,192.595764 
	C13.814336,144.188553 22.836720,96.252937 31.919159,47.998257 
	C36.455437,47.998257 40.759899,47.990604 45.064331,47.999531 
	C68.549026,48.048225 92.040260,47.781551 115.516159,48.262211 
	C131.764389,48.594894 147.323029,51.804325 159.686600,64.328445 
M113.322319,140.697174 
	C118.956039,128.729034 121.038734,116.019127 120.869118,102.922531 
	C120.728508,92.065857 115.723763,85.130470 105.002541,82.998085 
	C95.968826,81.201340 86.596207,81.108528 77.145454,80.240517 
	C72.062157,107.101494 67.167145,132.967514 62.228382,159.064743 
	C69.856766,159.064743 76.974754,159.170929 84.088463,159.041641 
	C97.141647,158.804428 107.156303,153.461868 113.322319,140.697174 
z"/>
<path fill="#3C2E85" opacity="1.000000" stroke="none" 
	d="
M841.977539,130.220276 
	C846.439148,84.523170 877.790588,52.387440 922.842285,46.941689 
	C939.985901,44.869411 957.065674,44.932037 973.960693,49.009956 
	C1001.531006,55.664547 1017.547668,75.402023 1016.843201,103.689194 
	C1016.111267,133.080582 1005.469421,158.185547 981.305420,176.313629 
	C967.948914,186.333740 952.630981,191.689224 936.206604,193.762512 
	C920.427979,195.754257 904.678833,195.347610 888.955322,192.518356 
	C857.521606,186.862198 838.730591,163.079117 841.977539,130.220276 
M924.135498,81.285667 
	C914.185181,84.481087 906.329163,90.431404 901.550720,99.753151 
	C895.530396,111.497269 892.658569,124.129272 893.149414,137.338135 
	C893.518433,147.267136 897.854797,155.080444 907.480042,158.815979 
	C921.397461,164.217239 945.613159,162.156357 956.226013,142.523285 
	C963.297241,129.441986 966.292419,115.451027 964.959595,100.675056 
	C964.315857,93.538033 960.872009,87.751465 954.480469,84.021881 
	C945.079529,78.536285 935.083069,79.041573 924.135498,81.285667 
z"/>
<path fill="#3C2E85" opacity="1.000000" stroke="none" 
	d="
M350.537445,153.490021 
	C334.420837,178.347000 311.004425,190.424881 282.697662,193.895279 
	C265.566925,195.995499 248.458847,195.516098 231.591293,191.191376 
	C204.408401,184.221848 188.834442,163.644730 189.674240,135.646759 
	C191.092331,88.369606 223.481796,52.759354 270.459595,46.993793 
	C288.604309,44.766895 306.740082,44.594769 324.467712,49.801838 
	C353.231049,58.250397 367.782013,80.101631 364.747772,109.883919 
	C363.176666,125.304848 358.799164,139.850891 350.537445,153.490021 
M270.477783,161.216705 
	C285.226227,161.035431 297.046204,155.418900 304.335846,142.192993 
	C311.415527,129.347977 314.252563,115.431602 312.948151,100.833153 
	C312.293488,93.506081 308.749298,87.659515 302.169769,83.847488 
	C288.365356,75.849579 266.894623,79.088455 255.734665,91.334747 
	C244.290955,103.892395 241.409790,119.565636 241.126892,135.790848 
	C240.889908,149.382858 248.340851,158.073135 261.569427,160.669571 
	C264.158142,161.177673 266.868317,161.066879 270.477783,161.216705 
z"/>
<path fill="#EB7A24" opacity="1.000000" stroke="none" 
	d="
M476.772400,85.700142 
	C493.101654,77.213257 508.764160,78.093269 523.016052,88.920624 
	C536.138245,98.889732 541.625244,112.936378 538.371521,129.118500 
	C534.822693,146.768387 523.149658,157.499985 505.759247,161.620316 
	C489.920197,165.373093 472.738953,158.128464 463.037079,144.182465 
	C449.485748,124.702927 455.465027,98.722824 476.772400,85.700142 
z"/>
<path fill="#EC7C29" opacity="1.000000" stroke="none" 
	d="
M404.457764,34.453007 
	C436.334503,5.528653 480.630951,1.310451 516.486267,23.563511 
	C549.951782,44.333366 566.779907,86.437172 556.250671,123.589775 
	C557.680603,100.785034 552.501465,79.859001 538.960388,61.230572 
	C525.359985,42.520561 507.222137,30.496864 484.828766,25.326658 
	C449.873413,17.256134 400.104919,30.274565 378.197937,81.742104 
	C378.963348,70.362381 388.879089,48.719948 404.457764,34.453007 
z"/>
<path fill="#EC7D29" opacity="1.000000" stroke="none" 
	d="
M408.828827,204.180084 
	C391.951752,191.790680 382.109619,174.710815 377.181305,154.832993 
	C364.426239,103.386490 399.723358,51.021744 452.309296,43.223999 
	C475.396210,39.800541 497.003784,44.255322 516.704285,57.058651 
	C517.946289,57.865810 519.061340,58.868416 519.984802,60.084049 
	C474.502533,39.107613 428.014099,54.674805 403.370453,88.256912 
	C377.898773,122.967438 380.153168,169.060516 409.177551,203.393158 
	C409.164825,203.844543 408.828827,204.180084 408.828827,204.180084 
z"/>
<path fill="#EB7C28" opacity="1.000000" stroke="none" 
	d="
M525.967346,215.041016 
	C485.880676,214.321945 457.961639,195.458954 440.688904,160.019699 
	C458.103333,184.214005 481.211975,199.120575 511.030334,201.707397 
	C541.297363,204.333130 567.384521,194.184052 587.601440,171.566193 
	C607.503601,149.300385 615.106689,122.877304 609.175598,92.577827 
	C618.269714,101.876350 618.896545,136.427643 609.766968,157.394974 
	C594.001282,193.602921 565.995300,212.829269 525.967346,215.041016 
z"/>
<path fill="#EB7C28" opacity="1.000000" stroke="none" 
	d="
M426.438232,170.438080 
	C432.818848,188.491562 443.925568,202.556808 458.895935,213.592407 
	C473.924133,224.670715 490.934937,230.314194 509.569794,230.982788 
	C528.075134,231.646744 545.302856,226.950638 561.561218,218.317413 
	C538.816101,237.822678 512.449036,244.996719 483.454132,238.387939 
	C444.897003,229.599670 420.647278,204.915909 412.540192,166.305069 
	C406.054688,135.417175 415.465149,108.297462 437.660858,85.608063 
	C420.787292,112.070274 416.029175,140.080902 426.438232,170.438080 
z"/>
<path fill="#EC7C29" opacity="1.000000" stroke="none" 
	d="
M555.566040,30.422302 
	C538.103088,13.810075 517.465637,6.049776 493.843536,5.762928 
	C527.466919,1.993303 556.728149,10.660944 577.885071,38.057133 
	C601.073364,68.083710 605.320740,101.513794 588.309631,135.608704 
	C574.046570,164.195694 549.884216,180.826172 517.834229,185.117249 
	C552.880615,172.676147 575.963684,149.069702 582.701904,112.098083 
	C588.439880,80.614822 578.415710,53.311485 555.566040,30.422302 
z"/>
<path fill="#EB7C28" opacity="1.000000" stroke="none" 
	d="
M439.483368,84.463959 
	C439.147491,84.729843 438.811584,84.995728 438.475708,85.261612 
	C438.413147,84.893570 438.350616,84.525536 438.731995,84.167328 
	C439.175903,84.177170 439.483368,84.463959 439.483368,84.463959 
z"/>
<path fill="#EB7C28" opacity="1.000000" stroke="none" 
	d="
M439.029419,84.026382 
	C439.141937,83.674881 439.400940,83.474174 439.659943,83.273460 
	C439.706726,83.528938 439.753510,83.784409 439.641846,84.251923 
	C439.483368,84.463959 439.175903,84.177170 439.029419,84.026382 
z"/>
<path fill="#EC7D29" opacity="1.000000" stroke="none" 
	d="
M409.342773,203.687347 
	C409.591553,203.899643 409.662384,204.269150 409.733246,204.638657 
	C409.505585,204.643585 409.277954,204.648529 408.939575,204.416779 
	C408.828827,204.180084 409.164825,203.844543 409.342773,203.687347 
z"/>
<path fill="#FEFDFE" opacity="1.000000" stroke="none" 
	d="
M113.169891,141.039032 
	C107.156303,153.461868 97.141647,158.804428 84.088463,159.041641 
	C76.974754,159.170929 69.856766,159.064743 62.228382,159.064743 
	C67.167145,132.967514 72.062157,107.101494 77.145454,80.240517 
	C86.596207,81.108528 95.968826,81.201340 105.002541,82.998085 
	C115.723763,85.130470 120.728508,92.065857 120.869118,102.922531 
	C121.038734,116.019127 118.956039,128.729034 113.169891,141.039032 
z"/>
<path fill="#FEFEFE" opacity="1.000000" stroke="none" 
	d="
M924.534302,81.178177 
	C935.083069,79.041573 945.079529,78.536285 954.480469,84.021881 
	C960.872009,87.751465 964.315857,93.538033 964.959595,100.675056 
	C966.292419,115.451027 963.297241,129.441986 956.226013,142.523285 
	C945.613159,162.156357 921.397461,164.217239 907.480042,158.815979 
	C897.854797,155.080444 893.518433,147.267136 893.149414,137.338135 
	C892.658569,124.129272 895.530396,111.497269 901.550720,99.753151 
	C906.329163,90.431404 914.185181,84.481087 924.534302,81.178177 
z"/>
<path fill="#FEFEFE" opacity="1.000000" stroke="none" 
	d="
M270.000122,161.229126 
	C266.868317,161.066879 264.158142,161.177673 261.569427,160.669571 
	C248.340851,158.073135 240.889908,149.382858 241.126892,135.790848 
	C241.409790,119.565636 244.290955,103.892395 255.734665,91.334747 
	C266.894623,79.088455 288.365356,75.849579 302.169769,83.847488 
	C308.749298,87.659515 312.293488,93.506081 312.948151,100.833153 
	C314.252563,115.431602 311.415527,129.347977 304.335846,142.192993 
	C297.046204,155.418900 285.226227,161.035431 270.000122,161.229126 
z"/>
</svg>